HIERARCHY
ROOT root
{
	OFFSET 0.000000 0.000000 0.000000
	CHANNELS 6 Xposition Yposition Zposition Zrotation Yrotation Xrotation
	JOINT lhip
	{
		OFFSET 0.058581 -0.082280 -0.017664
		CHANNELS 3 Zrotation Yrotation Xrotation
		JOINT lknee
		{
			OFFSET 0.043451 -0.386469 0.008037
			CHANNELS 3 Zrotation Yrotation Xrotation
			JOINT lankle
			{
				OFFSET -0.014790 -0.426874 -0.037428
				CHANNELS 3 Zrotation Yrotation Xrotation
				JOINT ltoe
				{
					OFFSET 0.041054 -0.060286 0.122042
					CHANNELS 3 Zrotation Yrotation Xrotation
					End Site
					{
						OFFSET 0.000000 0.000000 0.000000
					}
				}
			}
		}
	}
	JOINT rhip
	{
		OFFSET -0.060310 -0.090513 -0.013543
		CHANNELS 3 Zrotation Yrotation Xrotation
		JOINT rknee
		{
			OFFSET -0.043257 -0.383688 -0.004843
			CHANNELS 3 Zrotation Yrotation Xrotation
			JOINT rankle
			{
				OFFSET 0.019056 -0.420046 -0.034562
				CHANNELS 3 Zrotation Yrotation Xrotation
				JOINT rtoe
				{
					OFFSET -0.034840 -0.062106 0.130323
					CHANNELS 3 Zrotation Yrotation Xrotation
					End Site
					{
						OFFSET 0.000000 0.000000 0.000000
					}
				}
			}
		}
	}
	JOINT lowerback
	{
		OFFSET 0.004439 0.124404 -0.038385
		CHANNELS 3 Zrotation Yrotation Xrotation
		JOINT upperback
		{
			OFFSET 0.004488 0.137956 0.026820
			CHANNELS 3 Zrotation Yrotation Xrotation
			JOINT chest
			{
				OFFSET -0.002265 0.056032 0.002855
				CHANNELS 3 Zrotation Yrotation Xrotation
				JOINT lowerneck
				{
					OFFSET -0.013390 0.211636 -0.033468
					CHANNELS 3 Zrotation Yrotation Xrotation
					JOINT upperneck
					{
						OFFSET 0.010113 0.088937 0.050410
						CHANNELS 3 Zrotation Yrotation Xrotation
						End Site
						{
							OFFSET 0.000000 0.000000 0.000000
						}
					}
				}
				JOINT lclavicle
				{
					OFFSET 0.071702 0.114000 -0.018898
					CHANNELS 3 Zrotation Yrotation Xrotation
					JOINT lshoulder
					{
						OFFSET 0.122921 0.045205 -0.019046
						CHANNELS 3 Zrotation Yrotation Xrotation
						JOINT lelbow
						{
							OFFSET 0.255332 -0.015649 -0.022946
							CHANNELS 3 Zrotation Yrotation Xrotation
							JOINT lwrist
							{
								OFFSET 0.265709 0.012698 -0.007375
								CHANNELS 3 Zrotation Yrotation Xrotation
								End Site
								{
									OFFSET 0.000000 0.000000 0.000000
								}
							}
						}
					}
				}
				JOINT rclavicle
				{
					OFFSET -0.082954 0.112472 -0.023707
					CHANNELS 3 Zrotation Yrotation Xrotation
					JOINT rshoulder
					{
						OFFSET -0.113228 0.046853 -0.008472
						CHANNELS 3 Zrotation Yrotation Xrotation
						JOINT relbow
						{
							OFFSET -0.260127 -0.014369 -0.031269
							CHANNELS 3 Zrotation Yrotation Xrotation
							JOINT rwrist
							{
								OFFSET -0.269108 0.006794 -0.006027
								CHANNELS 3 Zrotation Yrotation Xrotation
								End Site
								{
									OFFSET 0.000000 0.000000 0.000000
								}
							}
						}
					}
				}
			}
		}
	}
}
MOTION
Frames: 10
Frame Time: 0.033333
0.995504 1.150076 0.963529 -94.779285 -8.542739 71.890676 14.537184 -5.118175 -36.677339 -8.164308 4.876469 33.697924 -3.791461 3.298730 -1.622048 0.000000 -0.000000 0.000000 -7.522189 -2.605943 21.604621 0.426359 13.622099 25.146631 -0.204705 -3.264328 -27.491089 0.000000 -0.000000 0.000000 -3.336694 10.530583 7.594741 3.209062 -5.775057 11.106437 -0.168003 0.662280 4.608231 2.565120 11.625978 11.192222 1.999655 4.105305 18.386410 -23.361282 5.278549 3.428513 -65.198294 -0.934778 5.338440 10.708536 -27.017158 8.941242 0.671851 -3.133237 -11.852160 23.646545 -3.645148 4.157056 59.647570 2.441001 6.342459 -16.101696 28.473761 -1.714588 6.453327 0.391651 -8.838121 
0.980612 1.143065 0.960927 -94.851369 -8.336353 71.967190 14.532878 -5.102597 -36.085418 -8.145652 4.132048 32.420536 -4.644687 2.648671 0.127434 0.000000 -0.000000 0.000000 -7.924527 -2.611460 22.275454 0.317822 13.946598 25.692986 -0.004567 -3.133300 -27.439418 0.000000 -0.000000 0.000000 -2.999070 10.282142 7.204715 3.223728 -5.833010 11.404506 -0.208668 0.772143 4.410750 2.473645 11.451142 11.628994 2.157594 4.489700 18.641786 -23.353889 5.303786 3.712338 -65.549797 -0.631613 5.217921 10.983532 -27.364744 8.788013 -0.113799 -3.079651 -11.846943 23.532584 -3.527167 4.165065 59.742284 2.280298 6.160206 -16.320169 29.200654 -1.684218 10.304773 0.508983 -9.024042 
0.965623 1.135269 0.958204 -94.979167 -8.066635 72.223315 14.611434 -5.024250 -35.778648 -8.104659 4.133191 31.884808 -4.972314 1.874759 0.971445 0.000000 -0.000000 0.000000 -8.495252 -2.609720 22.751578 0.288107 13.983502 26.281592 0.759552 -2.557730 -26.991539 0.000000 -0.000000 0.000000 -2.745500 10.183896 7.047822 3.464759 -5.770646 11.619906 -0.224204 0.673497 4.230921 2.603339 11.207814 11.281419 1.662061 4.775371 19.649437 -23.452793 5.750146 3.711061 -65.793206 -1.026792 5.085595 11.002066 -26.776629 8.556720 -1.511136 -4.037862 -10.606966 24.118216 -3.790599 3.647544 58.598917 2.978998 5.527720 -15.977069 28.709365 -1.885959 15.171169 4.692637 -5.758715 
0.949969 1.127468 0.955311 -95.143615 -7.828025 72.593279 14.602667 -4.834112 -35.566150 -8.360655 3.806856 31.881588 -4.981616 1.996013 1.685829 0.000000 -0.000000 0.000000 -8.705036 -2.298832 23.163407 0.215996 14.256753 26.940105 0.644655 -2.634188 -26.843630 0.000000 -0.000000 0.000000 -2.575816 10.134592 7.221874 3.567456 -5.845005 11.326098 -0.259617 0.630841 4.547974 2.850793 11.597075 11.137426 1.638256 4.246098 19.083871 -23.530595 5.909931 3.445903 -65.506828 -0.631364 5.304829 10.352523 -27.275778 9.558323 -0.876462 -3.082826 -11.916746 23.783841 -3.792863 3.546449 59.412847 3.120749 6.758272 -16.344934 29.903444 -2.097357 7.728376 1.172914 -8.748145 
0.933558 1.118290 0.952353 -95.527069 -7.466209 73.292134 14.714861 -4.742494 -35.953508 -8.241026 3.982821 33.178198 -5.190644 2.194257 3.164612 0.000000 -0.000000 0.000000 -9.185050 -2.242835 23.610277 0.099968 14.886700 26.540844 0.568655 -2.200612 -26.675430 0.000000 -0.000000 0.000000 -2.190338 10.050475 7.315474 3.511509 -5.935163 11.165635 -0.373808 0.519669 4.371987 2.821293 11.153281 11.350203 1.850355 4.472442 19.133298 -23.699798 5.845417 3.803700 -65.152434 -0.369897 4.862036 10.063921 -27.314454 9.829715 -0.864003 -3.077276 -11.979153 23.889329 -3.303097 3.634920 59.313535 3.555051 6.530158 -16.507215 29.793162 -2.403419 7.289927 1.482444 -8.009455 
0.917510 1.109103 0.949383 -95.456464 -7.001762 73.753634 14.728778 -4.857386 -36.316321 -8.817632 3.973519 35.192753 -7.263202 1.379984 6.390725 0.000000 -0.000000 0.000000 -9.110680 -1.955391 24.291937 -0.283475 14.943349 26.523398 0.141697 -2.191185 -26.232007 0.000000 -0.000000 0.000000 -2.168022 9.899335 7.563318 3.580306 -6.378836 12.034600 -0.345660 0.579330 3.993682 2.845334 11.358198 10.942664 1.531816 4.534851 20.110291 -23.444459 5.393238 3.884420 -65.326316 -0.630269 4.791106 10.408127 -26.778399 9.590880 -1.328912 -3.456575 -11.881350 24.082852 -2.701398 3.571824 59.046951 4.926470 6.465522 -15.976712 29.701350 -2.651272 7.430704 2.683839 -8.628477 
0.900250 1.099643 0.946225 -95.469266 -6.631540 75.030902 14.572519 -4.927027 -37.032725 -10.209607 3.546012 37.181710 -6.430593 0.004622 3.363702 0.000000 -0.000000 0.000000 -9.083710 -1.658063 24.073912 -0.517359 15.043721 26.551775 0.158759 -2.663838 -25.724899 0.000000 -0.000000 0.000000 -2.350497 9.857014 7.840308 3.633570 -6.626085 11.668085 -0.353560 0.544996 3.952023 2.747439 10.459872 10.874908 1.391018 4.375694 20.159300 -23.262588 5.136072 4.178452 -65.053423 -0.786378 4.496687 10.370677 -26.569331 10.036992 -1.547991 -3.229997 -12.296958 23.630778 -2.414671 3.548805 60.087587 5.523182 6.975974 -16.819445 29.652628 -2.617144 7.220841 2.152780 -8.921160 
0.881760 1.088733 0.943523 -95.056545 -6.076004 76.082591 13.915405 -5.082668 -37.557532 -10.047828 3.809754 38.819817 -3.934096 0.613993 -2.802223 0.000000 -0.000000 0.000000 -9.225196 -1.912362 24.350048 -0.500611 15.590546 26.293171 0.631930 -3.001691 -24.653882 0.000000 -0.000000 0.000000 -2.355936 9.644571 8.570608 3.514204 -6.993718 11.026597 -0.322547 0.446009 4.305878 2.522059 9.670735 10.067859 1.499256 4.553499 20.533529 -23.089470 4.473090 4.119235 -64.612952 -0.925242 4.011365 10.364787 -26.163717 9.489207 -1.601080 -3.475693 -12.328405 23.422226 -1.701683 2.945816 60.589850 5.586672 7.308780 -17.787955 29.752631 -3.318205 10.541883 1.898908 -7.734427 
0.864475 1.077488 0.941992 -94.803963 -5.573538 77.569146 13.364754 -4.450341 -40.142596 -10.233431 4.690053 42.130280 -2.299357 0.493397 -5.272641 0.000000 -0.000000 0.000000 -9.586271 -2.006588 23.808675 -0.593794 15.450113 26.384687 1.247238 -2.157746 -23.271260 0.000000 -0.000000 0.000000 -2.496070 9.863317 10.169314 3.485667 -7.236191 9.270111 -0.110654 0.354053 4.728368 2.360251 9.528702 9.427588 1.856492 4.565039 20.885381 -22.926448 4.012917 3.816363 -64.006734 -1.436679 3.719423 9.960977 -25.664354 9.158864 -0.959071 -3.215066 -12.298045 23.449618 -1.502736 2.650215 60.625014 5.977668 7.649791 -17.623380 30.597083 -3.512804 8.974301 1.613059 -7.877166 
0.849108 1.066185 0.942210 -94.709874 -5.426686 79.932728 13.829863 -5.003975 -43.523790 -10.943257 6.360505 44.935934 -1.485888 0.503014 -6.286441 0.000000 -0.000000 0.000000 -9.952460 -1.412814 21.812867 -0.582003 14.808915 26.828367 2.016575 -1.465460 -20.799294 0.000000 -0.000000 0.000000 -3.235890 10.570487 11.204961 3.610176 -7.284466 8.183992 -0.053304 0.384919 4.723797 2.489217 9.482916 8.857798 2.277215 3.608501 19.694975 -22.358572 2.931674 3.762797 -63.691555 -2.508696 4.432316 10.312303 -25.072354 8.663400 0.123350 -3.102393 -12.479253 23.378968 -1.178823 2.538135 61.453051 6.193124 8.709676 -18.837641 31.141851 -4.175394 6.906687 0.900603 -9.882646 
